# xmcd
#
# Track frame offsets: 
#        150
#        45857
#        97575
#        146103
#        208497
#        253310
#        309449
#
# Disc length: 4717 seconds
#
# Revision: 2
# Processed by: cddbd v1.5.2PL0 Copyright (c) Steve Scherf et al.
# Submitted via: ExactAudioCopy v0.99pb3
#
DISCID=5e126b07
DTITLE=Chick Corea - Steve Gadd - Christian McBride - Super Trio
DYEAR=2005
DGENRE=Jazz
TTITLE0=Humpty Dumpty
TTITLE1=The One Step
TTITLE2=Windows
TTITLE3=Matrix
TTITLE4=Quartet #2 Pt.1
TTITLE5=Sicily
TTITLE6=Spain
EXTD=YEAR: 2005
EXTT0=
EXTT1=
EXTT2=
EXTT3=
EXTT4=
EXTT5=
EXTT6=
PLAYORDER=
